<svg width="58" height="58" viewBox="0 0 58 58" fill="none" xmlns="http://www.w3.org/2000/svg">
<path d="M26.1 43.5H31.9V31.9H43.5V26.1H31.9V14.5H26.1V26.1H14.5V31.9H26.1V43.5ZM29 58C24.9883 58 21.2183 57.2388 17.69 55.7163C14.1617 54.1938 11.0925 52.1275 8.4825 49.5175C5.8725 46.9075 3.80625 43.8383 2.28375 40.31C0.76125 36.7817 0 33.0117 0 29C0 24.9883 0.76125 21.2183 2.28375 17.69C3.80625 14.1617 5.8725 11.0925 8.4825 8.4825C11.0925 5.8725 14.1617 3.80625 17.69 2.28375C21.2183 0.76125 24.9883 0 29 0C33.0117 0 36.7817 0.76125 40.31 2.28375C43.8383 3.80625 46.9075 5.8725 49.5175 8.4825C52.1275 11.0925 54.1938 14.1617 55.7163 17.69C57.2388 21.2183 58 24.9883 58 29C58 33.0117 57.2388 36.7817 55.7163 40.31C54.1938 43.8383 52.1275 46.9075 49.5175 49.5175C46.9075 52.1275 43.8383 54.1938 40.31 55.7163C36.7817 57.2388 33.0117 58 29 58Z" fill="#C67C4E"/>
</svg>
