<svg width="44" height="44" viewBox="0 0 44 44" fill="none" xmlns="http://www.w3.org/2000/svg">
<path d="M17.1111 36.6667C12.3444 36.6667 8.30093 35.0065 4.98056 31.6861C1.66019 28.3657 0 24.3222 0 19.5556V4.88889C0 3.54444 0.478704 2.39352 1.43611 1.43611C2.39352 0.478704 3.54444 0 4.88889 0H35.4444C37.8074 0 39.8241 0.835185 41.4944 2.50556C43.1648 4.17593 44 6.19259 44 8.55556C44 10.9185 43.1648 12.9352 41.4944 14.6056C39.8241 16.2759 37.8074 17.1111 35.4444 17.1111H34.2222V19.5556C34.2222 24.3222 32.562 28.3657 29.2417 31.6861C25.9213 35.0065 21.8778 36.6667 17.1111 36.6667ZM4.88889 12.2222H29.3333V4.88889H4.88889V12.2222ZM34.2222 12.2222H35.4444C36.463 12.2222 37.3287 11.8657 38.0417 11.1528C38.7546 10.4398 39.1111 9.57407 39.1111 8.55556C39.1111 7.53704 38.7546 6.6713 38.0417 5.95833C37.3287 5.24537 36.463 4.88889 35.4444 4.88889H34.2222V12.2222ZM0 44V39.1111H39.1111V44H0Z" fill="#C67C4E"/>
</svg>
