<svg width="47" height="48" viewBox="0 0 47 48" fill="none" xmlns="http://www.w3.org/2000/svg">
<path d="M14.1 33.4176V23.4426L35.6613 1.90824C36.1313 1.43883 36.66 1.08677 37.2475 0.85206C37.835 0.617353 38.4225 0.5 39.01 0.5C39.6367 0.5 40.234 0.617353 40.8019 0.85206C41.3698 1.08677 41.8887 1.43883 42.3587 1.90824L45.6488 5.25281C46.0796 5.72222 46.4125 6.24053 46.6475 6.80774C46.8825 7.37495 47 7.95194 47 8.5387C47 9.12547 46.8923 9.70246 46.6769 10.2697C46.4615 10.8369 46.1188 11.3552 45.6488 11.8246L24.0875 33.4176H14.1ZM39.01 11.8246L42.3587 8.5387L39.0687 5.25281L35.72 8.5387L39.01 11.8246ZM4.7 47.5C3.4075 47.5 2.30104 47.0404 1.38063 46.1211C0.460208 45.2018 0 44.0968 0 42.8059V9.94694C0 8.65606 0.460208 7.55098 1.38063 6.63171C2.30104 5.71244 3.4075 5.25281 4.7 5.25281H25.6737L9.4 21.5062V38.1117H25.9675L42.3 21.7996V42.8059C42.3 44.0968 41.8398 45.2018 40.9194 46.1211C39.999 47.0404 38.8925 47.5 37.6 47.5H4.7Z" fill="#C67C4E"/>
</svg>
