<svg width="58" height="58" viewBox="0 0 58 58" fill="none" xmlns="http://www.w3.org/2000/svg">
<circle cx="29" cy="29" r="29" fill="#C67C4E"/>
<path d="M25.3219 38.3249C25.7387 38.7417 26.2388 38.9501 26.8223 38.9501C27.4058 38.9501 27.906 38.7417 28.3228 38.3249C28.7396 37.9081 28.948 37.408 28.948 36.8245C28.948 36.241 28.7396 35.7408 28.3228 35.324C27.906 34.9072 27.4058 34.6988 26.8223 34.6988C26.2388 34.6988 25.7387 34.9072 25.3219 35.324C24.9051 35.7408 24.6967 36.241 24.6967 36.8245C24.6967 37.408 24.9051 37.9081 25.3219 38.3249ZM20.3204 33.2234L33.3243 33.2234V30.4226L20.3204 30.4226L20.3204 33.2234ZM25.3219 28.3219C25.7387 28.7387 26.2388 28.9471 26.8223 28.9471C27.4058 28.9471 27.906 28.7387 28.3228 28.3219C28.7396 27.9052 28.948 27.405 28.948 26.8215C28.948 26.238 28.7396 25.7378 28.3228 25.3211C27.906 24.9043 27.4058 24.6959 26.8223 24.6959C26.2388 24.6959 25.7387 24.9043 25.3219 25.3211C24.9051 25.7378 24.6967 26.238 24.6967 26.8215C24.6967 27.405 24.9051 27.9052 25.3219 28.3219ZM13.3183 33.3234C12.7682 32.7733 12.4931 32.1064 12.4931 31.3228C12.4931 30.5393 12.7682 29.8724 13.3183 29.3222L29.3231 13.3175C29.8732 12.7673 30.5401 12.4922 31.3237 12.4922C32.1072 12.4922 32.7741 12.7673 33.3243 13.3175L41.3266 21.3199L41.3266 33.3234L29.3231 45.327C28.7729 45.8772 28.106 46.1523 27.3225 46.1523C26.5389 46.1523 25.872 45.8772 25.3219 45.327L13.3183 33.3234ZM33.3243 27.3217L38.3258 32.3231L38.3258 22.3202L33.3243 27.3217Z" fill="white"/>
</svg>
