<svg width="58" height="58" viewBox="0 0 58 58" fill="none" xmlns="http://www.w3.org/2000/svg">
<circle cx="29" cy="29" r="29" fill="#C67C4E"/>
<mask id="mask0_450_502" style="mask-type:alpha" maskUnits="userSpaceOnUse" x="7" y="7" width="44" height="44">
<rect x="7.73294" y="7.73291" width="42.5772" height="42.5772" fill="#D9D9D9"/>
</mask>
<g mask="url(#mask0_450_502)">
<path d="M14.8291 41.44C12.8777 41.44 11.2071 40.7452 9.81745 39.3555C8.42778 37.9658 7.73294 36.2952 7.73294 34.3438C7.73294 32.6584 8.27255 31.1653 9.35176 29.8643C10.431 28.5633 11.8133 27.7502 13.4986 27.425L12.2568 26.3606H9.06348C8.6791 26.3606 8.36125 26.2349 8.10993 25.9836C7.8586 25.7322 7.73294 25.4144 7.73294 25.03C7.73294 24.6456 7.8586 24.3278 8.10993 24.0765C8.36125 23.8251 8.6791 23.6995 9.06348 23.6995H15.7162L20.1513 26.3606L26.6266 23.9212C26.8336 23.8621 27.0405 23.8104 27.2475 23.766C27.4545 23.7217 27.6762 23.6995 27.9128 23.6995H32.8358L30.086 20.1514H27.2475C26.7449 20.1514 26.3235 19.9814 25.9835 19.6413C25.6435 19.3013 25.4735 18.88 25.4735 18.3773C25.4735 17.8747 25.6435 17.4533 25.9835 17.1133C26.3235 16.7733 26.7449 16.6033 27.2475 16.6033H30.0416C30.6034 16.6033 31.1282 16.7289 31.6161 16.9803C32.104 17.2316 32.5105 17.5642 32.8358 17.9782L35.4968 21.3932L40.1537 19.0426C40.4494 18.8948 40.7377 18.9095 41.0186 19.0869C41.2995 19.2643 41.4399 19.5157 41.4399 19.8409V22.8125C41.4399 23.049 41.3512 23.256 41.1738 23.4334C40.9964 23.6108 40.7894 23.6995 40.5529 23.6995H37.3596L40.4642 27.7798C40.9077 27.6024 41.3586 27.4693 41.8169 27.3806C42.2752 27.2919 42.7409 27.2476 43.214 27.2476C45.1654 27.2476 46.836 27.9424 48.2257 29.3321C49.6153 30.7218 50.3102 32.3923 50.3102 34.3438C50.3102 36.2952 49.6153 37.9658 48.2257 39.3555C46.836 40.7452 45.1654 41.44 43.214 41.44C41.2625 41.44 39.5919 40.7452 38.2023 39.3555C36.8126 37.9658 36.1178 36.2952 36.1178 34.3438C36.1178 33.5455 36.2582 32.7693 36.5391 32.0153C36.82 31.2614 37.2118 30.5591 37.7144 29.9087L36.8274 28.8442L31.3278 37.0936C31.18 37.3301 30.973 37.5223 30.7069 37.6701C30.4408 37.818 30.1599 37.8919 29.8642 37.8919H26.1387C25.9022 37.8919 25.6878 37.8549 25.4956 37.781C25.3034 37.7071 25.1334 37.5962 24.9856 37.4484L21.9254 34.7873C21.7775 36.6501 21.0235 38.2245 19.6634 39.5107C18.3033 40.7969 16.6919 41.44 14.8291 41.44ZM14.8291 37.8919C15.8049 37.8919 16.6402 37.5445 17.335 36.8496C18.0298 36.1548 18.3772 35.3195 18.3772 34.3438C18.3772 33.3681 18.0298 32.5328 17.335 31.8379C16.6402 31.1431 15.8049 30.7957 14.8291 30.7957C13.8534 30.7957 13.0181 31.1431 12.3233 31.8379C11.6285 32.5328 11.281 33.3681 11.281 34.3438C11.281 35.3195 11.6285 36.1548 12.3233 36.8496C13.0181 37.5445 13.8534 37.8919 14.8291 37.8919ZM43.214 37.8919C44.1897 37.8919 45.025 37.5445 45.7198 36.8496C46.4146 36.1548 46.7621 35.3195 46.7621 34.3438C46.7621 33.3681 46.4146 32.5328 45.7198 31.8379C45.025 31.1431 44.1897 30.7957 43.214 30.7957C42.2382 30.7957 41.403 31.1431 40.7081 31.8379C40.0133 32.5328 39.6659 33.3681 39.6659 34.3438C39.6659 35.3195 40.0133 36.1548 40.7081 36.8496C41.403 37.5445 42.2382 37.8919 43.214 37.8919Z" fill="white"/>
</g>
</svg>
