<svg width="44" height="52" viewBox="0 0 44 52" fill="none" xmlns="http://www.w3.org/2000/svg">
<path d="M22 26C23.5125 26 24.8073 25.4908 25.8844 24.4725C26.9615 23.4542 27.5 22.23 27.5 20.8C27.5 19.37 26.9615 18.1458 25.8844 17.1275C24.8073 16.1092 23.5125 15.6 22 15.6C20.4875 15.6 19.1927 16.1092 18.1156 17.1275C17.0385 18.1458 16.5 19.37 16.5 20.8C16.5 22.23 17.0385 23.4542 18.1156 24.4725C19.1927 25.4908 20.4875 26 22 26ZM22 45.11C27.5917 40.2567 31.7396 35.8475 34.4438 31.8825C37.1479 27.9175 38.5 24.3967 38.5 21.32C38.5 16.5967 36.9073 12.7292 33.7219 9.7175C30.5365 6.70583 26.6292 5.2 22 5.2C17.3708 5.2 13.4635 6.70583 10.2781 9.7175C7.09271 12.7292 5.5 16.5967 5.5 21.32C5.5 24.3967 6.85208 27.9175 9.55625 31.8825C12.2604 35.8475 16.4083 40.2567 22 45.11ZM22 52C14.6208 46.0633 9.10938 40.5492 5.46563 35.4575C1.82188 30.3658 0 25.6533 0 21.32C0 14.82 2.21146 9.64167 6.63438 5.785C11.0573 1.92833 16.1792 0 22 0C27.8208 0 32.9427 1.92833 37.3656 5.785C41.7885 9.64167 44 14.82 44 21.32C44 25.6533 42.1781 30.3658 38.5344 35.4575C34.8906 40.5492 29.3792 46.0633 22 52Z" fill="#C67C4E"/>
</svg>
