<svg width="44" height="56" viewBox="0 0 44 56" fill="none" xmlns="http://www.w3.org/2000/svg">
<path d="M5.5 56C3.9875 56 2.69271 55.4778 1.61562 54.4333C0.538542 53.3889 0 52.1333 0 50.6667V24C0 22.5333 0.538542 21.2778 1.61562 20.2333C2.69271 19.1889 3.9875 18.6667 5.5 18.6667H8.25V13.3333C8.25 9.64444 9.59062 6.5 12.2719 3.9C14.9531 1.3 18.1958 0 22 0C25.8042 0 29.0469 1.3 31.7281 3.9C34.4094 6.5 35.75 9.64444 35.75 13.3333V18.6667H38.5C40.0125 18.6667 41.3073 19.1889 42.3844 20.2333C43.4615 21.2778 44 22.5333 44 24V50.6667C44 52.1333 43.4615 53.3889 42.3844 54.4333C41.3073 55.4778 40.0125 56 38.5 56H5.5ZM22 42.6667C23.5125 42.6667 24.8073 42.1444 25.8844 41.1C26.9615 40.0556 27.5 38.8 27.5 37.3333C27.5 35.8667 26.9615 34.6111 25.8844 33.5667C24.8073 32.5222 23.5125 32 22 32C20.4875 32 19.1927 32.5222 18.1156 33.5667C17.0385 34.6111 16.5 35.8667 16.5 37.3333C16.5 38.8 17.0385 40.0556 18.1156 41.1C19.1927 42.1444 20.4875 42.6667 22 42.6667ZM13.75 18.6667H30.25V13.3333C30.25 11.1111 29.4479 9.22222 27.8437 7.66667C26.2396 6.11111 24.2917 5.33333 22 5.33333C19.7083 5.33333 17.7604 6.11111 16.1562 7.66667C14.5521 9.22222 13.75 11.1111 13.75 13.3333V18.6667Z" fill="#C67C4E"/>
</svg>
