<svg width="58" height="58" viewBox="0 0 58 58" fill="none" xmlns="http://www.w3.org/2000/svg">
<path d="M26.39 49.3H31.465V45.675C33.8817 45.24 35.96 44.2975 37.7 42.8475C39.44 41.3975 40.31 39.2467 40.31 36.395C40.31 34.365 39.73 32.5042 38.57 30.8125C37.41 29.1208 35.09 27.6467 31.61 26.39C28.71 25.4233 26.7042 24.5775 25.5925 23.8525C24.4808 23.1275 23.925 22.1367 23.925 20.88C23.925 19.6233 24.3721 18.6325 25.2663 17.9075C26.1604 17.1825 27.4533 16.82 29.145 16.82C30.6917 16.82 31.9 17.1946 32.77 17.9437C33.64 18.6929 34.2683 19.6233 34.655 20.735L39.295 18.85C38.7633 17.1583 37.7846 15.6842 36.3587 14.4275C34.9329 13.1708 33.35 12.47 31.61 12.325V8.7H26.535V12.325C24.1183 12.8567 22.2333 13.92 20.88 15.515C19.5267 17.11 18.85 18.8983 18.85 20.88C18.85 23.1517 19.5146 24.9883 20.8437 26.39C22.1729 27.7917 24.2633 29 27.115 30.015C30.16 31.1267 32.2746 32.1175 33.4588 32.9875C34.6429 33.8575 35.235 34.9933 35.235 36.395C35.235 37.99 34.6671 39.1621 33.5312 39.9112C32.3954 40.6604 31.03 41.035 29.435 41.035C27.84 41.035 26.4262 40.5396 25.1937 39.5487C23.9612 38.5579 23.055 37.0717 22.475 35.09L17.69 36.975C18.3667 39.295 19.4179 41.1679 20.8437 42.5937C22.2696 44.0196 24.1183 44.9983 26.39 45.53V49.3ZM29 58C24.9883 58 21.2183 57.2387 17.69 55.7162C14.1617 54.1937 11.0925 52.1275 8.4825 49.5175C5.8725 46.9075 3.80625 43.8383 2.28375 40.31C0.76125 36.7817 0 33.0117 0 29C0 24.9883 0.76125 21.2183 2.28375 17.69C3.80625 14.1617 5.8725 11.0925 8.4825 8.4825C11.0925 5.8725 14.1617 3.80625 17.69 2.28375C21.2183 0.76125 24.9883 0 29 0C33.0117 0 36.7817 0.76125 40.31 2.28375C43.8383 3.80625 46.9075 5.8725 49.5175 8.4825C52.1275 11.0925 54.1937 14.1617 55.7162 17.69C57.2387 21.2183 58 24.9883 58 29C58 33.0117 57.2387 36.7817 55.7162 40.31C54.1937 43.8383 52.1275 46.9075 49.5175 49.5175C46.9075 52.1275 43.8383 54.1937 40.31 55.7162C36.7817 57.2387 33.0117 58 29 58ZM29 52.2C35.4767 52.2 40.9625 49.9525 45.4575 45.4575C49.9525 40.9625 52.2 35.4767 52.2 29C52.2 22.5233 49.9525 17.0375 45.4575 12.5425C40.9625 8.0475 35.4767 5.8 29 5.8C22.5233 5.8 17.0375 8.0475 12.5425 12.5425C8.0475 17.0375 5.8 22.5233 5.8 29C5.8 35.4767 8.0475 40.9625 12.5425 45.4575C17.0375 49.9525 22.5233 52.2 29 52.2Z" fill="#C67C4E"/>
</svg>
