<svg width="35" height="42" viewBox="0 0 35 42" fill="none" xmlns="http://www.w3.org/2000/svg">
<path d="M2.1875 35.7C1.56771 35.7 1.04818 35.4987 0.628906 35.0962C0.209635 34.6937 0 34.195 0 33.6C0 33.005 0.209635 32.5062 0.628906 32.1037C1.04818 31.7013 1.56771 31.5 2.1875 31.5H4.375V16.8C4.375 13.895 5.28646 11.3137 7.10938 9.05625C8.93229 6.79875 11.3021 5.32 14.2188 4.62V3.15C14.2188 2.275 14.5378 1.53125 15.1758 0.91875C15.8138 0.30625 16.5885 0 17.5 0C18.4115 0 19.1862 0.30625 19.8242 0.91875C20.4622 1.53125 20.7812 2.275 20.7812 3.15V4.62C23.6979 5.32 26.0677 6.79875 27.8906 9.05625C29.7135 11.3137 30.625 13.895 30.625 16.8V31.5H32.8125C33.4323 31.5 33.9518 31.7013 34.3711 32.1037C34.7904 32.5062 35 33.005 35 33.6C35 34.195 34.7904 34.6937 34.3711 35.0962C33.9518 35.4987 33.4323 35.7 32.8125 35.7H2.1875ZM17.5 42C16.2969 42 15.2669 41.5887 14.4102 40.7663C13.5534 39.9437 13.125 38.955 13.125 37.8H21.875C21.875 38.955 21.4466 39.9437 20.5898 40.7663C19.7331 41.5887 18.7031 42 17.5 42Z" fill="#C67C4E"/>
</svg>
