<svg width="56" height="50" viewBox="0 0 56 50" fill="none" xmlns="http://www.w3.org/2000/svg">
<path d="M44.5565 50C41.517 50 38.9479 48.9015 36.8492 46.7045C34.7506 44.5076 33.7012 41.8182 33.7012 38.6364C33.7012 35.4545 34.7506 32.7652 36.8492 30.5682C38.9479 28.3712 41.517 27.2727 44.5565 27.2727C47.596 27.2727 50.165 28.3712 52.2637 30.5682C54.3624 32.7652 55.4117 35.4545 55.4117 38.6364C55.4117 41.8182 54.3624 44.5076 52.2637 46.7045C50.165 48.9015 47.596 50 44.5565 50ZM4.75385 41.6667V35.6061H27.9117V41.6667H4.75385ZM11.267 22.7273C8.22753 22.7273 5.65845 21.6288 3.55977 19.4318C1.46109 17.2348 0.411743 14.5455 0.411743 11.3636C0.411743 8.18182 1.46109 5.49242 3.55977 3.29545C5.65845 1.09848 8.22753 0 11.267 0C14.3065 0 16.8756 1.09848 18.9742 3.29545C21.0729 5.49242 22.1223 8.18182 22.1223 11.3636C22.1223 14.5455 21.0729 17.2348 18.9742 19.4318C16.8756 21.6288 14.3065 22.7273 11.267 22.7273ZM27.9117 14.3939V8.33333H51.0696V14.3939H27.9117Z" fill="#C67C4E"/>
</svg>
