<svg width="50" height="49" viewBox="0 0 50 49" fill="none" xmlns="http://www.w3.org/2000/svg">
<path d="M24.9117 24.5C21.543 24.5 18.6591 23.3005 16.2602 20.9016C13.8612 18.5026 12.6617 15.6188 12.6617 12.25C12.6617 8.88125 13.8612 5.9974 16.2602 3.59844C18.6591 1.19948 21.543 0 24.9117 0C28.2805 0 31.1643 1.19948 33.5633 3.59844C35.9623 5.9974 37.1617 8.88125 37.1617 12.25C37.1617 15.6188 35.9623 18.5026 33.5633 20.9016C31.1643 23.3005 28.2805 24.5 24.9117 24.5ZM0.411743 42.875V40.425C0.411743 38.6896 0.858358 37.0945 1.75159 35.6398C2.64482 34.1852 3.83153 33.075 5.31174 32.3094C8.47633 30.7271 11.692 29.5404 14.9586 28.7492C18.2253 27.9581 21.543 27.5625 24.9117 27.5625C28.2805 27.5625 31.5982 27.9581 34.8649 28.7492C38.1315 29.5404 41.3472 30.7271 44.5117 32.3094C45.992 33.075 47.1787 34.1852 48.0719 35.6398C48.9651 37.0945 49.4117 38.6896 49.4117 40.425V42.875C49.4117 44.5594 48.812 46.0013 47.6125 47.2008C46.413 48.4003 44.9711 49 43.2867 49H6.53674C4.85237 49 3.41044 48.4003 2.21096 47.2008C1.01148 46.0013 0.411743 44.5594 0.411743 42.875Z" fill="#C67C4E"/>
</svg>
