<svg width="44" height="44" viewBox="0 0 44 44" fill="none" xmlns="http://www.w3.org/2000/svg">
<path d="M22 22C18.975 22 16.3854 20.9229 14.2313 18.7688C12.0771 16.6146 11 14.025 11 11C11 7.975 12.0771 5.38542 14.2313 3.23125C16.3854 1.07708 18.975 0 22 0C25.025 0 27.6146 1.07708 29.7687 3.23125C31.9229 5.38542 33 7.975 33 11C33 14.025 31.9229 16.6146 29.7687 18.7688C27.6146 20.9229 25.025 22 22 22ZM0 38.5V36.3C0 34.7417 0.401042 33.3094 1.20313 32.0031C2.00521 30.6969 3.07083 29.7 4.4 29.0125C7.24167 27.5917 10.1292 26.526 13.0625 25.8156C15.9958 25.1052 18.975 24.75 22 24.75C25.025 24.75 28.0042 25.1052 30.9375 25.8156C33.8708 26.526 36.7583 27.5917 39.6 29.0125C40.9292 29.7 41.9948 30.6969 42.7969 32.0031C43.599 33.3094 44 34.7417 44 36.3V38.5C44 40.0125 43.4615 41.3073 42.3844 42.3844C41.3073 43.4615 40.0125 44 38.5 44H5.5C3.9875 44 2.69271 43.4615 1.61563 42.3844C0.538542 41.3073 0 40.0125 0 38.5Z" fill="#C67C4E"/>
</svg>
