<?xml version="1.0"?>
<svg xmlns="http://www.w3.org/2000/svg" viewBox="0 0 50 50">
    <path d="M 6 2 L 6 48 L 33 48 C 32.4 48 32 48.4 32 49 C 32 49.6 32.4 50 33 50 L 49 50 C 49.6 50 50 49.6 50 49 C 50 48.4 49.600391 48 48.900391 48 L 48 48 L 48 45 C 48 43.6 47.399609 42.300781 46.099609 41.300781 L 44.599609 40 L 46.099609 38.699219 C 47.399609 37.699219 48 36.4 48 35 L 48 32 L 49 32 C 49.6 32 50 31.6 50 31 C 50 30.4 49.6 30 49 30 L 44 30 L 44 2 L 6 2 z M 14 11 L 36 11 L 36 13 L 14 13 L 14 11 z M 14 24 L 18 24 L 18 26 L 14 26 L 14 24 z M 21 24 L 36 24 L 36 26 L 21 26 L 21 24 z M 14 30 L 18 30 L 18 32 L 14 32 L 14 30 z M 21 30 L 33 30 C 32.4 30 32 30.4 32 31 C 32 31.6 32.4 32 33 32 L 21 32 L 21 30 z M 36 32 L 46 32 L 46 35 C 46 35.8 45.700391 36.499219 44.900391 37.199219 L 42.5 39.199219 C 42.2 39.399219 42.099609 39.7 42.099609 40 C 42.099609 40.3 42.2 40.599219 42.5 40.699219 L 44.900391 42.800781 C 45.700391 43.500781 46 44.1 46 45 L 46 48 L 44 48 C 44 46 41 44 41 44 C 41 44 38 46 38 48 L 36 48 L 36 45 C 36 44.1 36.399219 43.500781 37.199219 42.800781 L 39.599609 40.800781 C 39.899609 40.600781 40 40.3 40 40 C 40 39.7 39.899609 39.400781 39.599609 39.300781 L 37.199219 37.199219 C 36.399219 36.499219 36 35.8 36 35 L 36 32 z M 38 35 C 38 37.2 41 38 41 38 C 41 38 44 37.2 44 35 L 38 35 z M 14 36 L 18 36 L 18 38 L 14 38 L 14 36 z M 21 36 L 34.123047 36 C 34.300047 36.721 34.668406 37.396 35.191406 38 L 32 38 L 21 38 L 21 36 z"/>
</svg>
