<svg width="61" height="58" viewBox="0 0 61 58" fill="none" xmlns="http://www.w3.org/2000/svg">
<path d="M27.45 31.9H33.55H45.75V26.1H33.55H27.45H15.25V31.9H27.45ZM30.5 58C26.2808 58 22.3158 57.2388 18.605 55.7163C14.8942 54.1937 11.6662 52.1275 8.92125 49.5175C6.17625 46.9075 4.00313 43.8383 2.40188 40.31C0.800625 36.7817 0 33.0117 0 29C0 24.9883 0.800625 21.2183 2.40188 17.69C4.00313 14.1617 6.17625 11.0925 8.92125 8.4825C11.6662 5.8725 14.8942 3.80625 18.605 2.28375C22.3158 0.76125 26.2808 0 30.5 0C34.7192 0 38.6842 0.76125 42.395 2.28375C46.1058 3.80625 49.3338 5.8725 52.0788 8.4825C54.8237 11.0925 56.9969 14.1617 58.5981 17.69C60.1994 21.2183 61 24.9883 61 29C61 33.0117 60.1994 36.7817 58.5981 40.31C56.9969 43.8383 54.8237 46.9075 52.0788 49.5175C49.3338 52.1275 46.1058 54.1937 42.395 55.7163C38.6842 57.2388 34.7192 58 30.5 58Z" fill="#C67C4E"/>
</svg>
