<svg width="41" height="41" viewBox="0 0 41 41" fill="none" xmlns="http://www.w3.org/2000/svg">
<path d="M37.3671 41L26.7279 30.8449C25.4304 31.8994 23.9383 32.7343 22.2516 33.3494C20.5649 33.9646 18.77 34.2721 16.8671 34.2721C12.153 34.2721 8.16324 32.6134 4.89794 29.2961C1.63265 25.9787 0 21.9254 0 17.1361C0 12.3468 1.63265 8.29341 4.89794 4.97605C8.16324 1.65868 12.153 0 16.8671 0C21.5812 0 25.5709 1.65868 28.8362 4.97605C32.1015 8.29341 33.7342 12.3468 33.7342 17.1361C33.7342 19.0694 33.4314 20.8928 32.826 22.6064C32.2205 24.32 31.3987 25.8359 30.3608 27.1541L41 37.3092L37.3671 41ZM16.8671 28.9995C20.1108 28.9995 22.8679 27.8461 25.1385 25.5393C27.409 23.2325 28.5443 20.4315 28.5443 17.1361C28.5443 13.8407 27.409 11.0396 25.1385 8.7328C22.8679 6.42602 20.1108 5.27263 16.8671 5.27263C13.6234 5.27263 10.8663 6.42602 8.59573 8.7328C6.32516 11.0396 5.18987 13.8407 5.18987 17.1361C5.18987 20.4315 6.32516 23.2325 8.59573 25.5393C10.8663 27.8461 13.6234 28.9995 16.8671 28.9995Z" fill="#C67C4E"/>
</svg>
