<svg width="46" height="50" viewBox="0 0 46 50" fill="none" xmlns="http://www.w3.org/2000/svg">
<path d="M37.9117 50C35.8284 50 34.0576 49.2708 32.5992 47.8125C31.1409 46.3542 30.4117 44.5833 30.4117 42.5C30.4117 42.2083 30.4326 41.9063 30.4742 41.5938C30.5159 41.2813 30.5784 41 30.6617 40.75L13.0367 30.5C12.3284 31.125 11.5367 31.6146 10.6617 31.9688C9.78674 32.3229 8.87008 32.5 7.91174 32.5C5.82841 32.5 4.05758 31.7708 2.59924 30.3125C1.14091 28.8542 0.411743 27.0833 0.411743 25C0.411743 22.9167 1.14091 21.1458 2.59924 19.6875C4.05758 18.2292 5.82841 17.5 7.91174 17.5C8.87008 17.5 9.78674 17.6771 10.6617 18.0313C11.5367 18.3854 12.3284 18.875 13.0367 19.5L30.6617 9.25C30.5784 9 30.5159 8.71875 30.4742 8.40625C30.4326 8.09375 30.4117 7.79167 30.4117 7.5C30.4117 5.41667 31.1409 3.64583 32.5992 2.1875C34.0576 0.729166 35.8284 0 37.9117 0C39.9951 0 41.7659 0.729166 43.2242 2.1875C44.6826 3.64583 45.4117 5.41667 45.4117 7.5C45.4117 9.58333 44.6826 11.3542 43.2242 12.8125C41.7659 14.2708 39.9951 15 37.9117 15C36.9534 15 36.0367 14.8229 35.1617 14.4688C34.2867 14.1146 33.4951 13.625 32.7867 13L15.1617 23.25C15.2451 23.5 15.3076 23.7813 15.3492 24.0938C15.3909 24.4063 15.4117 24.7083 15.4117 25C15.4117 25.2917 15.3909 25.5938 15.3492 25.9063C15.3076 26.2188 15.2451 26.5 15.1617 26.75L32.7867 37C33.4951 36.375 34.2867 35.8854 35.1617 35.5313C36.0367 35.1771 36.9534 35 37.9117 35C39.9951 35 41.7659 35.7292 43.2242 37.1875C44.6826 38.6458 45.4117 40.4167 45.4117 42.5C45.4117 44.5833 44.6826 46.3542 43.2242 47.8125C41.7659 49.2708 39.9951 50 37.9117 50Z" fill="#C67C4E"/>
</svg>
