<svg width="41" height="50" viewBox="0 0 41 50" fill="none" xmlns="http://www.w3.org/2000/svg">
<path d="M5.41174 50C4.03674 50 2.85966 49.5104 1.88049 48.5313C0.901327 47.5521 0.411743 46.375 0.411743 45V15C0.411743 13.625 0.901327 12.4479 1.88049 11.4688C2.85966 10.4896 4.03674 10 5.41174 10H10.4117C10.4117 7.25 11.3909 4.89583 13.3492 2.9375C15.3076 0.979167 17.6617 0 20.4117 0C23.1617 0 25.5159 0.979167 27.4742 2.9375C29.4326 4.89583 30.4117 7.25 30.4117 10H35.4117C36.7867 10 37.9638 10.4896 38.943 11.4688C39.9222 12.4479 40.4117 13.625 40.4117 15V45C40.4117 46.375 39.9222 47.5521 38.943 48.5313C37.9638 49.5104 36.7867 50 35.4117 50H5.41174ZM15.4117 10H25.4117C25.4117 8.625 24.9222 7.44792 23.943 6.46875C22.9638 5.48958 21.7867 5 20.4117 5C19.0367 5 17.8597 5.48958 16.8805 6.46875C15.9013 7.44792 15.4117 8.625 15.4117 10ZM27.9117 22.5C28.6201 22.5 29.2138 22.2604 29.693 21.7813C30.1722 21.3021 30.4117 20.7083 30.4117 20V15H25.4117V20C25.4117 20.7083 25.6513 21.3021 26.1305 21.7813C26.6097 22.2604 27.2034 22.5 27.9117 22.5ZM12.9117 22.5C13.6201 22.5 14.2138 22.2604 14.693 21.7813C15.1722 21.3021 15.4117 20.7083 15.4117 20V15H10.4117V20C10.4117 20.7083 10.6513 21.3021 11.1305 21.7813C11.6097 22.2604 12.2034 22.5 12.9117 22.5Z" fill="#C67C4E"/>
</svg>
