<svg width="46" height="32" viewBox="0 0 46 32" fill="none" xmlns="http://www.w3.org/2000/svg">
<path d="M23 25.3C25.6136 25.3 27.8352 24.3958 29.6648 22.5875C31.4943 20.7792 32.4091 18.5833 32.4091 16C32.4091 13.4167 31.4943 11.2208 29.6648 9.4125C27.8352 7.60417 25.6136 6.7 23 6.7C20.3864 6.7 18.1648 7.60417 16.3352 9.4125C14.5057 11.2208 13.5909 13.4167 13.5909 16C13.5909 18.5833 14.5057 20.7792 16.3352 22.5875C18.1648 24.3958 20.3864 25.3 23 25.3ZM23 21.58C21.4318 21.58 20.0989 21.0375 19.0011 19.9525C17.9034 18.8675 17.3545 17.55 17.3545 16C17.3545 14.45 17.9034 13.1325 19.0011 12.0475C20.0989 10.9625 21.4318 10.42 23 10.42C24.5682 10.42 25.9011 10.9625 26.9989 12.0475C28.0966 13.1325 28.6455 14.45 28.6455 16C28.6455 17.55 28.0966 18.8675 26.9989 19.9525C25.9011 21.0375 24.5682 21.58 23 21.58ZM23 31.5C17.9121 31.5 13.2773 30.0964 9.09545 27.2892C4.91364 24.4819 1.88182 20.7189 0 16C1.88182 11.2811 4.91364 7.51806 9.09545 4.71083C13.2773 1.90361 17.9121 0.5 23 0.5C28.0879 0.5 32.7227 1.90361 36.9045 4.71083C41.0864 7.51806 44.1182 11.2811 46 16C44.1182 20.7189 41.0864 24.4819 36.9045 27.2892C32.7227 30.0964 28.0879 31.5 23 31.5ZM23 27.3667C26.9379 27.3667 30.5534 26.3419 33.8466 24.2925C37.1398 22.2431 39.6576 19.4789 41.4 16C39.6576 12.5211 37.1398 9.75694 33.8466 7.7075C30.5534 5.65806 26.9379 4.63333 23 4.63333C19.0621 4.63333 15.4466 5.65806 12.1534 7.7075C8.86023 9.75694 6.34242 12.5211 4.6 16C6.34242 19.4789 8.86023 22.2431 12.1534 24.2925C15.4466 26.3419 19.0621 27.3667 23 27.3667Z" fill="#C67C4E"/>
</svg>
